<svg xmlns="http://www.w3.org/2000/svg" width="17" height="16" fill="none" viewBox="0 0 17 16"><path stroke="#DFB82C" d="m16.235 6.914-4.168 2.907 1.592 4.703a.605.605 0 0 1-.234.691.662.662 0 0 1-.757 0L8.5 12.308l-4.168 2.907a.665.665 0 0 1-.757 0 .605.605 0 0 1-.234-.69L4.934 9.82.765 6.914a.605.605 0 0 1-.233-.69.642.642 0 0 1 .612-.427h5.151l1.592-4.704a.643.643 0 0 1 .614-.426c.278 0 .525.172.612.426l1.59 4.704h5.153c.279 0 .526.172.612.426a.605.605 0 0 1-.233.691Z" clip-rule="evenodd"/><path fill="#DFB82C" d="M4.332 15.215 8.5 12.308V.5c-.4 0-.575.396-.613.594L6.295 5.797H1.144a.642.642 0 0 0-.612.426.605.605 0 0 0 .233.691l4.169 2.907-1.593 4.703a.605.605 0 0 0 .234.691.665.665 0 0 0 .757 0Z"/></svg>